<mxfile host="app.diagrams.net" agent="Mozilla/5.0 (Windows NT 10.0; Win64; x64) AppleWebKit/537.36 (KHTML, like Gecko) Chrome/129.0.0.0 Safari/537.36" version="24.7.17">
  <diagram name="第 1 页" id="NgRn6OrfJr9LUJFWV6fN">
    <mxGraphModel dx="949" dy="502" grid="0" gridSize="10" guides="1" tooltips="1" connect="1" arrows="1" fold="1" page="1" pageScale="1" pageWidth="827" pageHeight="1169" math="0" shadow="0">
      <root>
        <mxCell id="0" />
        <mxCell id="1" parent="0" />
        <mxCell id="xe5cOUKEcp0xnVNIY3go-1" value="0" style="rounded=0;whiteSpace=wrap;html=1;fillColor=#f8cecc;strokeColor=#b85450;" vertex="1" parent="1">
          <mxGeometry x="140" y="70" width="80" height="30" as="geometry" />
        </mxCell>
        <mxCell id="xe5cOUKEcp0xnVNIY3go-5" value="" style="edgeStyle=orthogonalEdgeStyle;rounded=0;orthogonalLoop=1;jettySize=auto;html=1;" edge="1" parent="1" source="xe5cOUKEcp0xnVNIY3go-2" target="xe5cOUKEcp0xnVNIY3go-3">
          <mxGeometry relative="1" as="geometry" />
        </mxCell>
        <mxCell id="xe5cOUKEcp0xnVNIY3go-2" value="1" style="rounded=0;whiteSpace=wrap;html=1;fillColor=#f8cecc;strokeColor=#b85450;" vertex="1" parent="1">
          <mxGeometry x="140" y="100" width="80" height="30" as="geometry" />
        </mxCell>
        <mxCell id="xe5cOUKEcp0xnVNIY3go-6" value="" style="edgeStyle=orthogonalEdgeStyle;rounded=0;orthogonalLoop=1;jettySize=auto;html=1;" edge="1" parent="1" source="xe5cOUKEcp0xnVNIY3go-3" target="xe5cOUKEcp0xnVNIY3go-4">
          <mxGeometry relative="1" as="geometry" />
        </mxCell>
        <mxCell id="xe5cOUKEcp0xnVNIY3go-3" value="3" style="rounded=0;whiteSpace=wrap;html=1;" vertex="1" parent="1">
          <mxGeometry x="269" y="100" width="80" height="30" as="geometry" />
        </mxCell>
        <mxCell id="xe5cOUKEcp0xnVNIY3go-9" value="" style="edgeStyle=orthogonalEdgeStyle;rounded=0;orthogonalLoop=1;jettySize=auto;html=1;" edge="1" parent="1" source="xe5cOUKEcp0xnVNIY3go-4" target="xe5cOUKEcp0xnVNIY3go-8">
          <mxGeometry relative="1" as="geometry" />
        </mxCell>
        <mxCell id="xe5cOUKEcp0xnVNIY3go-4" value="7" style="rounded=0;whiteSpace=wrap;html=1;" vertex="1" parent="1">
          <mxGeometry x="398" y="100" width="80" height="30" as="geometry" />
        </mxCell>
        <mxCell id="xe5cOUKEcp0xnVNIY3go-8" value="5" style="rounded=0;whiteSpace=wrap;html=1;" vertex="1" parent="1">
          <mxGeometry x="527" y="100" width="80" height="30" as="geometry" />
        </mxCell>
        <mxCell id="xe5cOUKEcp0xnVNIY3go-11" value="0" style="rounded=0;whiteSpace=wrap;html=1;fillColor=#d5e8d4;strokeColor=#82b366;" vertex="1" parent="1">
          <mxGeometry x="138" y="179" width="80" height="30" as="geometry" />
        </mxCell>
        <mxCell id="xe5cOUKEcp0xnVNIY3go-12" value="" style="edgeStyle=orthogonalEdgeStyle;rounded=0;orthogonalLoop=1;jettySize=auto;html=1;" edge="1" parent="1" source="xe5cOUKEcp0xnVNIY3go-13" target="xe5cOUKEcp0xnVNIY3go-15">
          <mxGeometry relative="1" as="geometry" />
        </mxCell>
        <mxCell id="xe5cOUKEcp0xnVNIY3go-13" value="1" style="rounded=0;whiteSpace=wrap;html=1;fillColor=#d5e8d4;strokeColor=#82b366;" vertex="1" parent="1">
          <mxGeometry x="138" y="209" width="80" height="30" as="geometry" />
        </mxCell>
        <mxCell id="xe5cOUKEcp0xnVNIY3go-14" value="" style="edgeStyle=orthogonalEdgeStyle;rounded=0;orthogonalLoop=1;jettySize=auto;html=1;" edge="1" parent="1" source="xe5cOUKEcp0xnVNIY3go-20" target="xe5cOUKEcp0xnVNIY3go-17">
          <mxGeometry relative="1" as="geometry" />
        </mxCell>
        <mxCell id="xe5cOUKEcp0xnVNIY3go-15" value="5" style="rounded=0;whiteSpace=wrap;html=1;" vertex="1" parent="1">
          <mxGeometry x="267" y="209" width="80" height="30" as="geometry" />
        </mxCell>
        <mxCell id="xe5cOUKEcp0xnVNIY3go-22" value="" style="edgeStyle=orthogonalEdgeStyle;rounded=0;orthogonalLoop=1;jettySize=auto;html=1;" edge="1" parent="1" source="xe5cOUKEcp0xnVNIY3go-17" target="xe5cOUKEcp0xnVNIY3go-21">
          <mxGeometry relative="1" as="geometry" />
        </mxCell>
        <mxCell id="xe5cOUKEcp0xnVNIY3go-17" value="7" style="rounded=0;whiteSpace=wrap;html=1;" vertex="1" parent="1">
          <mxGeometry x="267" y="269" width="80" height="30" as="geometry" />
        </mxCell>
        <mxCell id="xe5cOUKEcp0xnVNIY3go-19" value="2" style="rounded=0;whiteSpace=wrap;html=1;fillColor=#d5e8d4;strokeColor=#82b366;" vertex="1" parent="1">
          <mxGeometry x="138" y="239" width="80" height="30" as="geometry" />
        </mxCell>
        <mxCell id="xe5cOUKEcp0xnVNIY3go-20" value="3" style="rounded=0;whiteSpace=wrap;html=1;fillColor=#d5e8d4;strokeColor=#82b366;" vertex="1" parent="1">
          <mxGeometry x="138" y="269" width="80" height="30" as="geometry" />
        </mxCell>
        <mxCell id="xe5cOUKEcp0xnVNIY3go-21" value="3" style="rounded=0;whiteSpace=wrap;html=1;" vertex="1" parent="1">
          <mxGeometry x="396" y="269" width="80" height="30" as="geometry" />
        </mxCell>
        <mxCell id="xe5cOUKEcp0xnVNIY3go-23" style="edgeStyle=orthogonalEdgeStyle;rounded=0;orthogonalLoop=1;jettySize=auto;html=1;exitX=0.5;exitY=1;exitDx=0;exitDy=0;" edge="1" parent="1" source="xe5cOUKEcp0xnVNIY3go-21" target="xe5cOUKEcp0xnVNIY3go-21">
          <mxGeometry relative="1" as="geometry" />
        </mxCell>
        <mxCell id="xe5cOUKEcp0xnVNIY3go-46" value="0" style="rounded=0;whiteSpace=wrap;html=1;fillColor=#f8cecc;strokeColor=#b85450;" vertex="1" parent="1">
          <mxGeometry x="148" y="378" width="80" height="30" as="geometry" />
        </mxCell>
        <mxCell id="xe5cOUKEcp0xnVNIY3go-48" value="1" style="rounded=0;whiteSpace=wrap;html=1;fillColor=#f8cecc;strokeColor=#b85450;" vertex="1" parent="1">
          <mxGeometry x="148" y="408" width="80" height="30" as="geometry" />
        </mxCell>
        <mxCell id="xe5cOUKEcp0xnVNIY3go-59" value="" style="edgeStyle=orthogonalEdgeStyle;rounded=0;orthogonalLoop=1;jettySize=auto;html=1;" edge="1" parent="1" source="xe5cOUKEcp0xnVNIY3go-50">
          <mxGeometry relative="1" as="geometry">
            <mxPoint x="576" y="473" as="targetPoint" />
          </mxGeometry>
        </mxCell>
        <mxCell id="xe5cOUKEcp0xnVNIY3go-50" value="3" style="rounded=0;whiteSpace=wrap;html=1;" vertex="1" parent="1">
          <mxGeometry x="416" y="458" width="80" height="30" as="geometry" />
        </mxCell>
        <mxCell id="xe5cOUKEcp0xnVNIY3go-51" value="" style="edgeStyle=orthogonalEdgeStyle;rounded=0;orthogonalLoop=1;jettySize=auto;html=1;" edge="1" parent="1" source="xe5cOUKEcp0xnVNIY3go-52" target="xe5cOUKEcp0xnVNIY3go-55">
          <mxGeometry relative="1" as="geometry" />
        </mxCell>
        <mxCell id="xe5cOUKEcp0xnVNIY3go-52" value="7" style="rounded=0;whiteSpace=wrap;html=1;" vertex="1" parent="1">
          <mxGeometry x="296" y="394" width="80" height="30" as="geometry" />
        </mxCell>
        <mxCell id="xe5cOUKEcp0xnVNIY3go-53" value="2" style="rounded=0;whiteSpace=wrap;html=1;fillColor=#f8cecc;strokeColor=#b85450;" vertex="1" parent="1">
          <mxGeometry x="148" y="438" width="80" height="30" as="geometry" />
        </mxCell>
        <mxCell id="xe5cOUKEcp0xnVNIY3go-54" value="3" style="rounded=0;whiteSpace=wrap;html=1;fillColor=#f8cecc;strokeColor=#b85450;" vertex="1" parent="1">
          <mxGeometry x="148" y="468" width="80" height="30" as="geometry" />
        </mxCell>
        <mxCell id="xe5cOUKEcp0xnVNIY3go-55" value="5" style="rounded=0;whiteSpace=wrap;html=1;" vertex="1" parent="1">
          <mxGeometry x="434" y="394" width="80" height="30" as="geometry" />
        </mxCell>
        <mxCell id="xe5cOUKEcp0xnVNIY3go-56" style="edgeStyle=orthogonalEdgeStyle;rounded=0;orthogonalLoop=1;jettySize=auto;html=1;exitX=0.5;exitY=1;exitDx=0;exitDy=0;" edge="1" parent="1" source="xe5cOUKEcp0xnVNIY3go-55" target="xe5cOUKEcp0xnVNIY3go-55">
          <mxGeometry relative="1" as="geometry" />
        </mxCell>
        <mxCell id="xe5cOUKEcp0xnVNIY3go-60" value="null" style="text;html=1;align=center;verticalAlign=middle;whiteSpace=wrap;rounded=0;" vertex="1" parent="1">
          <mxGeometry x="560" y="461" width="60" height="30" as="geometry" />
        </mxCell>
        <mxCell id="xe5cOUKEcp0xnVNIY3go-61" value="" style="endArrow=classic;html=1;rounded=0;entryX=0;entryY=0.5;entryDx=0;entryDy=0;" edge="1" parent="1" target="xe5cOUKEcp0xnVNIY3go-50">
          <mxGeometry width="50" height="50" relative="1" as="geometry">
            <mxPoint x="368" y="503" as="sourcePoint" />
            <mxPoint x="439" y="513" as="targetPoint" />
          </mxGeometry>
        </mxCell>
        <mxCell id="xe5cOUKEcp0xnVNIY3go-62" value="&lt;font size=&quot;1&quot; color=&quot;#ff1f0f&quot;&gt;&lt;b style=&quot;font-size: 17px;&quot;&gt;e&lt;/b&gt;&lt;/font&gt;" style="text;html=1;align=center;verticalAlign=middle;whiteSpace=wrap;rounded=0;" vertex="1" parent="1">
          <mxGeometry x="352" y="504" width="55" height="28" as="geometry" />
        </mxCell>
        <mxCell id="xe5cOUKEcp0xnVNIY3go-64" value="&lt;font size=&quot;1&quot; color=&quot;#ff1f0f&quot;&gt;&lt;b style=&quot;font-size: 17px;&quot;&gt;next&lt;/b&gt;&lt;/font&gt;" style="text;html=1;align=center;verticalAlign=middle;whiteSpace=wrap;rounded=0;" vertex="1" parent="1">
          <mxGeometry x="277" y="424" width="55" height="28" as="geometry" />
        </mxCell>
        <mxCell id="xe5cOUKEcp0xnVNIY3go-65" value="&lt;font color=&quot;#ff1f0f&quot;&gt;&lt;span style=&quot;font-size: 17px;&quot;&gt;&lt;b&gt;e.next&lt;/b&gt;&lt;/span&gt;&lt;/font&gt;" style="text;html=1;align=center;verticalAlign=middle;whiteSpace=wrap;rounded=0;" vertex="1" parent="1">
          <mxGeometry x="547" y="488" width="55" height="28" as="geometry" />
        </mxCell>
        <mxCell id="xe5cOUKEcp0xnVNIY3go-66" value="0" style="rounded=0;whiteSpace=wrap;html=1;fillColor=#f8cecc;strokeColor=#b85450;" vertex="1" parent="1">
          <mxGeometry x="143.5" y="587" width="80" height="30" as="geometry" />
        </mxCell>
        <mxCell id="xe5cOUKEcp0xnVNIY3go-67" value="1" style="rounded=0;whiteSpace=wrap;html=1;fillColor=#f8cecc;strokeColor=#b85450;" vertex="1" parent="1">
          <mxGeometry x="143.5" y="617" width="80" height="30" as="geometry" />
        </mxCell>
        <mxCell id="xe5cOUKEcp0xnVNIY3go-82" value="" style="edgeStyle=orthogonalEdgeStyle;rounded=0;orthogonalLoop=1;jettySize=auto;html=1;" edge="1" parent="1" source="xe5cOUKEcp0xnVNIY3go-69" target="xe5cOUKEcp0xnVNIY3go-81">
          <mxGeometry relative="1" as="geometry" />
        </mxCell>
        <mxCell id="xe5cOUKEcp0xnVNIY3go-69" value="7" style="rounded=0;whiteSpace=wrap;html=1;" vertex="1" parent="1">
          <mxGeometry x="272.5" y="677" width="80" height="30" as="geometry" />
        </mxCell>
        <mxCell id="xe5cOUKEcp0xnVNIY3go-72" value="2" style="rounded=0;whiteSpace=wrap;html=1;fillColor=#f8cecc;strokeColor=#b85450;" vertex="1" parent="1">
          <mxGeometry x="143.5" y="647" width="80" height="30" as="geometry" />
        </mxCell>
        <mxCell id="xe5cOUKEcp0xnVNIY3go-73" value="3" style="rounded=0;whiteSpace=wrap;html=1;fillColor=#f8cecc;strokeColor=#b85450;" vertex="1" parent="1">
          <mxGeometry x="143.5" y="677" width="80" height="30" as="geometry" />
        </mxCell>
        <mxCell id="xe5cOUKEcp0xnVNIY3go-75" style="edgeStyle=orthogonalEdgeStyle;rounded=0;orthogonalLoop=1;jettySize=auto;html=1;exitX=0.5;exitY=1;exitDx=0;exitDy=0;" edge="1" parent="1">
          <mxGeometry relative="1" as="geometry">
            <mxPoint x="392" y="617" as="sourcePoint" />
            <mxPoint x="392" y="617" as="targetPoint" />
          </mxGeometry>
        </mxCell>
        <mxCell id="xe5cOUKEcp0xnVNIY3go-77" value="" style="endArrow=classic;html=1;rounded=0;entryX=0;entryY=0.5;entryDx=0;entryDy=0;exitX=1;exitY=0.5;exitDx=0;exitDy=0;" edge="1" parent="1" target="xe5cOUKEcp0xnVNIY3go-69" source="xe5cOUKEcp0xnVNIY3go-73">
          <mxGeometry width="50" height="50" relative="1" as="geometry">
            <mxPoint x="363.5" y="712" as="sourcePoint" />
            <mxPoint x="434.5" y="722" as="targetPoint" />
          </mxGeometry>
        </mxCell>
        <mxCell id="xe5cOUKEcp0xnVNIY3go-79" value="&lt;font color=&quot;#ff1f0f&quot;&gt;&lt;span style=&quot;font-size: 17px;&quot;&gt;&lt;b&gt;e，下次插入3&lt;/b&gt;&lt;/span&gt;&lt;/font&gt;" style="text;html=1;align=center;verticalAlign=middle;whiteSpace=wrap;rounded=0;" vertex="1" parent="1">
          <mxGeometry x="402" y="648" width="120" height="28" as="geometry" />
        </mxCell>
        <mxCell id="xe5cOUKEcp0xnVNIY3go-81" value="3" style="rounded=0;whiteSpace=wrap;html=1;" vertex="1" parent="1">
          <mxGeometry x="402" y="677" width="80" height="30" as="geometry" />
        </mxCell>
        <mxCell id="xe5cOUKEcp0xnVNIY3go-83" value="5" style="rounded=0;whiteSpace=wrap;html=1;" vertex="1" parent="1">
          <mxGeometry x="367" y="587" width="80" height="30" as="geometry" />
        </mxCell>
        <mxCell id="xe5cOUKEcp0xnVNIY3go-84" value="0" style="rounded=0;whiteSpace=wrap;html=1;fillColor=#f8cecc;strokeColor=#b85450;" vertex="1" parent="1">
          <mxGeometry x="138" y="820" width="80" height="30" as="geometry" />
        </mxCell>
        <mxCell id="xe5cOUKEcp0xnVNIY3go-85" value="1" style="rounded=0;whiteSpace=wrap;html=1;fillColor=#f8cecc;strokeColor=#b85450;" vertex="1" parent="1">
          <mxGeometry x="138" y="850" width="80" height="30" as="geometry" />
        </mxCell>
        <mxCell id="xe5cOUKEcp0xnVNIY3go-86" value="" style="edgeStyle=orthogonalEdgeStyle;rounded=0;orthogonalLoop=1;jettySize=auto;html=1;" edge="1" parent="1" source="xe5cOUKEcp0xnVNIY3go-87" target="xe5cOUKEcp0xnVNIY3go-93">
          <mxGeometry relative="1" as="geometry" />
        </mxCell>
        <mxCell id="xe5cOUKEcp0xnVNIY3go-87" value="3" style="rounded=0;whiteSpace=wrap;html=1;" vertex="1" parent="1">
          <mxGeometry x="267" y="910" width="80" height="30" as="geometry" />
        </mxCell>
        <mxCell id="xe5cOUKEcp0xnVNIY3go-88" value="2" style="rounded=0;whiteSpace=wrap;html=1;fillColor=#f8cecc;strokeColor=#b85450;" vertex="1" parent="1">
          <mxGeometry x="138" y="880" width="80" height="30" as="geometry" />
        </mxCell>
        <mxCell id="xe5cOUKEcp0xnVNIY3go-89" value="3" style="rounded=0;whiteSpace=wrap;html=1;fillColor=#f8cecc;strokeColor=#b85450;" vertex="1" parent="1">
          <mxGeometry x="138" y="910" width="80" height="30" as="geometry" />
        </mxCell>
        <mxCell id="xe5cOUKEcp0xnVNIY3go-90" style="edgeStyle=orthogonalEdgeStyle;rounded=0;orthogonalLoop=1;jettySize=auto;html=1;exitX=0.5;exitY=1;exitDx=0;exitDy=0;" edge="1" parent="1">
          <mxGeometry relative="1" as="geometry">
            <mxPoint x="386.5" y="850" as="sourcePoint" />
            <mxPoint x="386.5" y="850" as="targetPoint" />
          </mxGeometry>
        </mxCell>
        <mxCell id="xe5cOUKEcp0xnVNIY3go-91" value="" style="endArrow=classic;html=1;rounded=0;entryX=0;entryY=0.5;entryDx=0;entryDy=0;exitX=1;exitY=0.5;exitDx=0;exitDy=0;" edge="1" parent="1" source="xe5cOUKEcp0xnVNIY3go-89" target="xe5cOUKEcp0xnVNIY3go-87">
          <mxGeometry width="50" height="50" relative="1" as="geometry">
            <mxPoint x="358" y="945" as="sourcePoint" />
            <mxPoint x="429" y="955" as="targetPoint" />
          </mxGeometry>
        </mxCell>
        <mxCell id="xe5cOUKEcp0xnVNIY3go-92" value="&lt;font style=&quot;font-size: 13px;&quot; color=&quot;#ff1f0f&quot;&gt;&lt;b&gt;因为3.next=null&lt;/b&gt;&lt;/font&gt;&lt;div style=&quot;font-size: 13px;&quot;&gt;&lt;font color=&quot;#ff1f0f&quot;&gt;&lt;b&gt;所以并不会再进行循环&lt;/b&gt;&lt;/font&gt;&lt;/div&gt;&lt;div style=&quot;font-size: 13px;&quot;&gt;&lt;font color=&quot;#ff1f0f&quot;&gt;&lt;b&gt;所以丢失数据5&lt;/b&gt;&lt;/font&gt;&lt;/div&gt;" style="text;html=1;align=center;verticalAlign=middle;whiteSpace=wrap;rounded=0;" vertex="1" parent="1">
          <mxGeometry x="460" y="820" width="197" height="28" as="geometry" />
        </mxCell>
        <mxCell id="xe5cOUKEcp0xnVNIY3go-96" value="" style="edgeStyle=orthogonalEdgeStyle;rounded=0;orthogonalLoop=1;jettySize=auto;html=1;entryX=0.5;entryY=1;entryDx=0;entryDy=0;" edge="1" parent="1" source="xe5cOUKEcp0xnVNIY3go-93" target="xe5cOUKEcp0xnVNIY3go-87">
          <mxGeometry relative="1" as="geometry">
            <mxPoint x="436.5" y="1020" as="targetPoint" />
            <Array as="points">
              <mxPoint x="430" y="980" />
              <mxPoint x="307" y="980" />
            </Array>
          </mxGeometry>
        </mxCell>
        <mxCell id="xe5cOUKEcp0xnVNIY3go-93" value="7" style="rounded=0;whiteSpace=wrap;html=1;" vertex="1" parent="1">
          <mxGeometry x="396.5" y="910" width="80" height="30" as="geometry" />
        </mxCell>
        <mxCell id="xe5cOUKEcp0xnVNIY3go-94" value="5" style="rounded=0;whiteSpace=wrap;html=1;" vertex="1" parent="1">
          <mxGeometry x="361.5" y="820" width="80" height="30" as="geometry" />
        </mxCell>
        <mxCell id="xe5cOUKEcp0xnVNIY3go-97" value="&lt;font color=&quot;#ff1f0f&quot;&gt;&lt;span style=&quot;font-size: 13px;&quot;&gt;&lt;b&gt;死循环&lt;/b&gt;&lt;/span&gt;&lt;/font&gt;" style="text;html=1;align=center;verticalAlign=middle;whiteSpace=wrap;rounded=0;" vertex="1" parent="1">
          <mxGeometry x="269" y="982" width="197" height="28" as="geometry" />
        </mxCell>
        <mxCell id="xe5cOUKEcp0xnVNIY3go-98" value="&lt;font color=&quot;#ff1f0f&quot;&gt;&lt;span style=&quot;font-size: 13px;&quot;&gt;&lt;b&gt;头插入3&lt;/b&gt;&lt;/span&gt;&lt;/font&gt;" style="text;html=1;align=center;verticalAlign=middle;whiteSpace=wrap;rounded=0;" vertex="1" parent="1">
          <mxGeometry x="205" y="880" width="197" height="28" as="geometry" />
        </mxCell>
      </root>
    </mxGraphModel>
  </diagram>
</mxfile>
